<svg width="139" height="24" viewBox="0 0 139 24" fill="none" xmlns="http://www.w3.org/2000/svg">
<g clip-path="url(#clip0_1429_13013)">
<path d="M64.9377 8.18553C65.3855 7.82937 65.7459 7.37552 65.9914 6.85868C66.2369 6.34183 66.361 5.77569 66.3541 5.20354C66.3541 1.95318 64.0928 0.0148926 60.3007 0.0148926H52.1947V17.0321H60.3007C64.5103 17.0321 66.8263 15.1634 66.8263 11.7738C66.806 11.0713 66.6253 10.3827 66.298 9.76074C65.9706 9.13878 65.5053 8.59996 64.9377 8.18553V8.18553ZM56.3297 10.1735H60.3057C61.2996 10.1735 62.6714 10.7699 62.6714 11.744C62.6714 13.0114 60.5492 13.0462 60.3057 13.0462H56.3297V10.1735ZM60.3057 6.35161H56.3297V3.91135H60.3057C61.7966 3.91135 62.1992 4.79104 62.1992 5.25821C62.1942 5.54647 62.1942 6.35658 60.3007 6.35658L60.3057 6.35161Z" fill="white"/>
<path d="M73.3767 4.45801C69.684 4.45801 67.0101 7.15173 67.0101 10.8693C67.0101 14.5868 69.6343 17.2805 73.3966 17.2805C77.1588 17.2805 79.8128 14.6415 79.8128 10.8693C79.8406 10.0177 79.693 9.1695 79.3791 8.37741C79.0652 7.58532 78.5917 6.86627 77.988 6.26496C77.3844 5.66365 76.6635 5.19294 75.8702 4.88208C75.0769 4.57123 74.2281 4.42688 73.3767 4.45801V4.45801ZM75.8319 10.8693C75.8319 12.2062 75.0814 13.5531 73.3966 13.5531C71.7117 13.5531 70.9662 12.2062 70.9662 10.8693C70.9662 9.53235 71.7266 8.16064 73.3966 8.16064C74.9124 8.16064 75.8319 9.52241 75.8319 10.8693V10.8693Z" fill="white"/>
<path d="M87.3373 4.50283C86.1775 4.49933 85.0496 4.8823 84.1317 5.59125L84.0174 4.66187H80.4241V17.0321H84.3603V10.7302C84.3603 9.29388 85.3295 8.21043 86.6117 8.21043C88.555 8.21043 88.7041 10.0344 88.7041 10.596V17.057H92.6801V10.596C92.6801 6.94309 90.543 4.50283 87.3373 4.50283Z" fill="white"/>
<path d="M103.107 3.31995L101.954 4.77615C101.197 4.44547 100.375 4.28921 99.5486 4.31891C98.7198 4.29115 97.8942 4.43408 97.123 4.73884C96.3519 5.0436 95.6516 5.50367 95.0657 6.09047C94.4799 6.67727 94.0209 7.37828 93.7174 8.14993C93.4138 8.92159 93.2722 9.74741 93.3013 10.5761C93.3013 14.3483 95.7565 16.7836 99.5585 16.7836C100.384 16.7836 101.785 17.1265 101.785 18.4237C101.785 19.7209 100.632 20.2278 99.5585 20.2278C98.4055 20.2278 97.2375 19.6065 97.2375 18.4237V17.8273H93.3013V18.4237C93.3013 21.7088 95.8757 24 99.5585 24C103.241 24 105.726 21.7585 105.726 18.4237C105.769 17.7109 105.63 16.9989 105.324 16.3541C105.017 15.7092 104.552 15.1526 103.972 14.736C105.627 13.4239 105.771 11.257 105.771 10.5761C105.811 9.39365 105.462 8.23067 104.777 7.2661L106.104 5.57631L103.107 3.31995ZM101.845 10.5761C101.845 12.0671 100.9 13.0611 99.5486 13.0611C98.1967 13.0611 97.2276 12.0671 97.2276 10.5761C97.2276 9.08512 98.1818 8.03148 99.5486 8.03148C100.915 8.03148 101.845 9.07518 101.845 10.5761Z" fill="white"/>
<path d="M115.979 5.37751C115.097 4.73762 114.033 4.3979 112.943 4.40836C112.09 4.37125 111.239 4.50613 110.44 4.80498C109.641 5.10384 108.91 5.56053 108.291 6.14785C107.697 6.77253 107.235 7.5102 106.932 8.31702C106.629 9.12384 106.491 9.98334 106.526 10.8445C106.526 12.8325 107.143 14.5223 108.301 15.6753C108.905 16.2433 109.616 16.6857 110.392 16.9766C111.168 17.2676 111.995 17.4013 112.823 17.3701H112.883C114.013 17.3444 115.106 16.9693 116.014 16.2965L116.079 17.0321H119.826V4.68171H116.019L115.979 5.37751ZM113.181 8.07123C115.02 8.07123 115.845 9.47276 115.845 10.8594C115.845 12.246 115.02 13.6426 113.181 13.6426C111.566 13.6426 110.478 12.5194 110.478 10.8445C110.452 10.4796 110.504 10.1135 110.63 9.77013C110.756 9.42674 110.953 9.11384 111.208 8.85196C111.463 8.59008 111.771 8.38515 112.111 8.2506C112.451 8.11605 112.816 8.05492 113.181 8.07123V8.07123Z" fill="white"/>
<path d="M124.89 0.0247803H120.959V17.037H124.89V0.0247803Z" fill="white"/>
<path d="M131.963 4.45801C128.275 4.45801 125.596 7.15173 125.596 10.8693C125.596 14.5868 128.22 17.2805 131.983 17.2805C135.745 17.2805 138.399 14.6415 138.399 10.8693C138.427 10.0177 138.279 9.1695 137.965 8.37741C137.651 7.58532 137.178 6.86627 136.574 6.26496C135.97 5.66365 135.25 5.19294 134.456 4.88208C133.663 4.57123 132.814 4.42688 131.963 4.45801V4.45801ZM134.418 10.8693C134.418 12.2062 133.667 13.5531 131.983 13.5531C130.298 13.5531 129.552 12.2062 129.552 10.8693C129.552 9.53235 130.313 8.16064 131.983 8.16064C133.508 8.16064 134.418 9.52241 134.418 10.8693V10.8693Z" fill="white"/>
<path d="M0.815078 12.5591L0.859807 12.5045L0.914477 12.4249C1.07783 12.1913 1.26251 11.9734 1.46614 11.7739C1.76173 11.4712 2.09594 11.2088 2.46014 10.9936L14.4278 1.79913C14.5993 1.64281 14.7839 1.50148 14.9795 1.37669C15.3158 1.15396 15.6801 0.97681 16.063 0.849869C17.0512 0.516927 18.1213 0.516927 19.1095 0.849869H19.1841C19.6459 1.02308 20.0783 1.26613 20.4663 1.57052C20.5181 1.60582 20.5679 1.64399 20.6154 1.68482L24.5318 4.69166H24.5616L24.7157 4.81094L36.0075 13.4985L36.0721 13.5481H36.1019L37.1655 14.3682C37.5361 14.5962 37.9628 14.7167 38.398 14.7161C38.8696 14.7231 39.3327 14.5895 39.7281 14.3324C40.1236 14.0752 40.4335 13.7062 40.6185 13.2723C40.8035 12.8384 40.8551 12.3592 40.7668 11.8959C40.6785 11.4325 40.4542 11.006 40.1226 10.6705L39.9039 10.5016L39.8492 10.4568H39.8244L29.0843 2.20667L29.0495 2.18182L28.8954 2.06751C28.7645 1.96678 28.6584 1.83732 28.5854 1.6891C28.5125 1.54089 28.4745 1.37789 28.4745 1.21268C28.4745 1.04747 28.5125 0.884468 28.5854 0.736253C28.6584 0.588038 28.7645 0.458571 28.8954 0.357842L29.0445 0.233593C29.236 0.0836624 29.4722 0.00219727 29.7155 0.00219727C29.9587 0.00219727 30.1949 0.0836624 30.3864 0.233593L30.5057 0.323053C30.5151 0.334026 30.527 0.342552 30.5405 0.347902L40.8979 8.29986C40.9973 8.3595 41.0967 8.42908 41.1911 8.49866C41.2531 8.54017 41.3128 8.58497 41.3701 8.63285L41.4048 8.6577H41.4347C41.539 8.74716 41.6335 8.82668 41.713 8.9062C41.9483 9.13474 42.1583 9.38802 42.3392 9.66163L42.3988 9.75109C42.8584 10.4656 43.1171 11.2906 43.1478 12.1395C43.1785 12.9885 42.9801 13.8301 42.5734 14.5759C42.1667 15.3217 41.5667 15.9443 40.8364 16.3782C40.106 16.8121 39.2724 17.0414 38.4229 17.042C37.93 17.0434 37.4402 16.9663 36.9716 16.8134H36.902H36.8474C36.5273 16.702 36.2206 16.5553 35.9329 16.3761C35.682 16.2206 35.4458 16.0426 35.2272 15.8443L23.2247 6.63989L19.1891 3.5585L19.1493 3.52868L19.0598 3.4591C18.6629 3.16389 18.1856 2.99629 17.6912 2.97854C17.1968 2.96079 16.7087 3.09372 16.2916 3.3597L15.9387 3.63305C15.9253 3.6384 15.9133 3.64693 15.9039 3.6579L12.3603 6.37648L12.2907 6.39139L12.1367 6.51564H12.0969L4.46801 12.415L4.37855 12.4846L4.33879 12.5045L3.11618 13.4438C2.62507 13.9397 2.34995 14.6096 2.3508 15.3075C2.35058 15.7796 2.4751 16.2433 2.71174 16.6517C2.94839 17.0602 3.28876 17.3988 3.69839 17.6334C4.10802 17.868 4.57236 17.9901 5.0444 17.9875C5.51644 17.9849 5.9794 17.8576 6.38642 17.6186L16.9575 9.52247L17.0072 9.48768L17.1216 9.40319C17.3086 9.26051 17.5374 9.18323 17.7726 9.18323C18.0079 9.18323 18.2366 9.26051 18.4237 9.40319L18.543 9.48768L18.5877 9.52247L23.2247 13.076C23.3408 13.1643 23.4377 13.2753 23.5097 13.4021C23.5817 13.529 23.6272 13.6691 23.6434 13.8141C23.6597 13.9591 23.6464 14.1058 23.6043 14.2455C23.5622 14.3851 23.4923 14.5148 23.3986 14.6266L23.2794 14.7708C23.1014 14.987 22.8463 15.1255 22.5681 15.1571C22.2898 15.1886 22.0102 15.1107 21.7884 14.9397L17.7577 11.8534L8.47381 18.9903C8.23283 19.2186 7.96789 19.4202 7.68358 19.5916H7.65376C7.39327 19.7506 7.11877 19.8853 6.83371 19.9942L6.64983 20.0588C6.13192 20.238 5.58756 20.3287 5.03955 20.3272C4.13215 20.3273 3.24156 20.0823 2.46181 19.6182C1.68206 19.1542 1.04207 18.4881 0.609417 17.6905C0.17676 16.8929 -0.0325141 15.9933 0.00368431 15.0866C0.0398827 14.1799 0.320211 13.2998 0.815078 12.5392V12.5591Z" fill="white"/>
</g>
<defs>
<clipPath id="clip0_1429_13013">
<rect width="138.399" height="24" fill="white"/>
</clipPath>
</defs>
</svg>
